<svg xmlns="http://www.w3.org/2000/svg" width="130" height="60" viewBox="12 10 108 38" fill="none"><g fill="#000"><path d="m78.7437 27.5764c-1.478 0-2.2641.8025-2.7044 1.8298v12.0064c0 .3532-.0314.4174-.2516.4174h-5.7547c-.2515 0-.283 0-.283-.5458v-18.2022c0-.4495 0-.4495.2516-.4495h5.4717c.2515 0 .4088.2248.4088.61v2.4719c.7547-2.2472 2.9559-3.6597 5.8176-3.6597 3.8679 0 5.7547 2.1509 5.7547 6.26v12.9374c0 .5458-.0629.5779-.3774.5779h-5.6289c-.2516 0-.3459 0-.3459-.4174v-11.3322c0-1.7015-1.0692-2.504-2.3585-2.504z"></path><path d="m46.8244 21.4766c-5.5346 0-10.0314 4.5907-10.0314 10.2407 0 5.6501 4.4968 10.2408 10.0314 10.2408s10.0314-4.5907 10.0314-10.2408c.0315-5.65-4.4653-10.2407-10.0314-10.2407zm0 6.0995c2.2327 0 4.0566 1.8619 4.0566 4.1412s-1.8239 4.1413-4.0566 4.1413-4.0566-1.862-4.0566-4.1413 1.8239-4.1412 4.0566-4.1412z"></path><path d="m61.5412 21.4766c-5.5346 0-10.0314 4.5907-10.0314 10.2407 0 5.6501 4.4968 10.2408 10.0314 10.2408s10.0315-4.5907 10.0315-10.2408c0-5.65-4.4969-10.2407-10.0315-10.2407zm0 6.0995c2.2327 0 4.0566 1.8619 4.0566 4.1412s-1.8239 4.1413-4.0566 4.1413-4.0566-1.862-4.0566-4.1413 1.8239-4.1412 4.0566-4.1412z"></path><path d="m95.6604 21.4766c-5.5346 0-10.0315 4.5907-10.0315 10.2407 0 5.6501 4.4969 10.2408 10.0315 10.2408s10.0316-4.5907 10.0316-10.2408c0-5.65-4.466-10.2407-10.0316-10.2407zm0 6.0995c2.2327 0 4.0566 1.8619 4.0566 4.1412s-1.8239 4.1413-4.0566 4.1413-4.0566-1.862-4.0566-4.1413 1.8239-4.1412 4.0566-4.1412z"></path><path d="m27.4221 21.4766c-5.5346 0-10.0315 4.5907-10.0315 10.2407 0 5.6501 4.4969 10.2408 10.0315 10.2408s10.0314-4.5907 10.0314-10.2408c0-5.65-4.4968-10.2407-10.0314-10.2407zm0 6.0995c2.2327 0 4.0566 1.8619 4.0566 4.1412s-1.8239 4.1413-4.0566 4.1413-4.0566-1.862-4.0566-4.1413c-.0315-2.2793 1.7924-4.1412 4.0566-4.1412z"></path><path d="m38.9952 41.573c0 .2568-.1887.4494-.4403.4494h-5.5346c-.2516 0-.4402-.1926-.4402-.4494v-25.939c0-.2568.1886-.4494.4402-.4494h5.5346c.2516 0 .4403.1926.4403.4494z"></path><path d="m107.641 41.5731c0 .2569-.188.4495-.44.4495h-4.843c-.251 0-.44-.1926-.44-.4495v-19.069c0-.2568.189-.4494.44-.4494h4.843c.252 0 .44.1926.44.4494z"></path><path d="m110.818 25.8426h-.849v-2.6003h-.692v-.7384h2.264v.7384h-.723z"></path><path d="m111.761 22.5039h.849l.661 1.7657.692-1.7657h.849l.503 3.3387h-.849l-.252-1.9262-.786 1.9262h-.346l-.755-1.9262-.283 1.9262h-.849z"></path></g></svg>
